<?xml version="1.0" standalone="no"?>
<!DOCTYPE svg PUBLIC "-//W3C//DTD SVG 20010904//EN"
 "http://www.w3.org/TR/2001/REC-SVG-20010904/DTD/svg10.dtd">
<svg version="1.0" xmlns="http://www.w3.org/2000/svg"
 width="512.000000pt" height="512.000000pt" viewBox="0 0 512.000000 512.000000"
 preserveAspectRatio="xMidYMid meet">

<g transform="translate(0.000000,512.000000) scale(0.100000,-0.100000)"
fill="#000000" stroke="none">
<path d="M0 4113 l0 -1007 22 44 c15 30 37 53 63 67 39 22 49 23 318 23 299 0
319 -3 365 -53 35 -37 242 -595 242 -651 0 -53 -30 -101 -80 -127 -29 -16 -57
-19 -163 -19 -118 0 -128 -1 -123 -17 3 -10 37 -145 76 -301 64 -253 71 -286
60 -313 -23 -53 -90 -67 -133 -27 -31 29 -605 821 -629 867 -17 34 -18 -15
-18 -1282 l0 -1317 1198 2 c658 1 1179 3 1157 5 -317 27 -550 95 -657 191 -70
63 -78 91 -78 299 l0 181 -202 4 c-174 3 -208 6 -238 22 -102 54 -152 129
-153 230 0 74 21 127 71 180 67 70 90 76 318 76 l201 0 7 82 c4 46 7 92 6 103
-1 11 -3 109 -6 218 l-5 197 -183 0 c-131 0 -196 4 -232 15 -185 55 -239 298
-94 428 69 63 86 67 308 67 l199 0 7 83 c4 45 7 91 6 102 -1 11 -3 109 -6 218
l-5 197 -183 0 c-206 0 -257 10 -319 61 -82 67 -113 197 -72 297 21 52 100
124 153 140 24 7 111 12 229 12 l190 0 7 83 c4 45 6 89 6 97 -1 8 -3 106 -6
218 l-6 202 -187 0 c-212 0 -252 8 -319 65 -54 47 -84 114 -85 190 0 102 54
188 148 231 47 22 62 24 248 24 l197 0 0 143 c0 164 11 198 78 259 109 99 315
158 662 191 19 2 -504 5 -1162 5 l-1198 2 0 -1007z"/>
<path d="M2770 5113 c295 -23 547 -96 650 -189 69 -63 80 -96 80 -261 l0 -143
191 0 c119 0 207 -5 231 -12 53 -16 132 -88 153 -140 41 -100 10 -230 -72
-297 -62 -51 -113 -61 -319 -61 l-183 0 -5 -197 c-3 -109 -5 -207 -6 -218 -1
-11 2 -57 6 -102 l7 -83 190 0 c118 0 205 -5 229 -12 53 -16 132 -88 153 -140
57 -137 -20 -302 -159 -343 -36 -11 -101 -15 -232 -15 l-183 0 -5 -197 c-3
-109 -5 -207 -6 -218 -1 -11 2 -57 6 -102 l7 -83 201 0 c173 0 207 -3 241 -19
51 -23 119 -96 136 -147 46 -139 -37 -294 -179 -334 -20 -5 -119 -10 -219 -10
l-182 0 -5 -197 c-3 -109 -5 -207 -6 -218 -1 -11 2 -57 6 -102 l7 -83 201 0
c224 0 251 -6 314 -70 122 -121 93 -319 -58 -404 l-55 -31 -202 -3 -203 -4 0
-181 c0 -154 -3 -188 -19 -222 -60 -133 -303 -229 -671 -264 -49 -5 425 -9
1113 -10 l1197 -1 0 1317 c0 1267 -1 1316 -18 1282 -24 -46 -598 -838 -629
-866 -47 -44 -123 -22 -138 39 -5 19 118 542 141 602 5 14 -10 16 -123 16
-106 0 -134 3 -163 19 -50 26 -80 74 -80 127 0 56 207 614 242 651 46 50 66
53 365 53 269 0 279 -1 318 -23 26 -14 48 -37 63 -67 l22 -44 0 1007 0 1007
-1197 -2 c-659 -1 -1178 -3 -1153 -5z"/>
<path d="M2375 4944 c-145 -14 -239 -29 -328 -50 -109 -27 -241 -84 -251 -109
-13 -35 132 -98 310 -134 237 -48 609 -54 845 -12 207 36 388 107 373 146 -16
42 -219 111 -412 141 -93 14 -453 26 -537 18z"/>
<path d="M1790 4526 c0 -54 -16 -89 -57 -129 -44 -41 -80 -47 -289 -47 -175 0
-193 -2 -216 -20 -14 -11 -28 -31 -30 -44 -7 -36 17 -85 47 -96 15 -6 115 -10
223 -10 186 0 199 -2 237 -23 22 -13 49 -40 62 -62 21 -38 23 -51 23 -231 0
-185 1 -191 23 -211 70 -64 260 -118 504 -142 112 -12 137 -22 154 -63 15 -37
0 -78 -38 -101 -28 -16 -42 -17 -144 -7 -145 14 -238 33 -369 77 -58 19 -111
37 -117 40 -9 3 -13 -7 -13 -36 0 -78 -48 -146 -119 -170 -21 -7 -110 -11
-227 -11 -186 0 -194 -1 -218 -22 -28 -25 -34 -49 -23 -90 13 -51 45 -58 262
-58 221 0 245 -6 293 -68 27 -35 27 -36 30 -236 4 -231 1 -225 102 -270 94
-42 342 -96 445 -96 22 0 57 -5 78 -11 78 -21 86 -124 12 -155 -66 -27 -350
16 -535 82 -52 19 -96 34 -97 34 -2 0 -3 -18 -3 -40 0 -81 -51 -148 -128 -170
-20 -5 -123 -10 -228 -10 -185 0 -191 -1 -211 -22 -24 -27 -30 -52 -20 -90 13
-51 45 -58 262 -58 221 0 245 -6 293 -68 27 -35 27 -36 30 -236 3 -171 6 -204
20 -220 51 -57 294 -127 497 -142 113 -8 143 -19 162 -59 14 -28 14 -38 3 -65
-18 -43 -42 -53 -132 -51 -142 3 -374 53 -530 116 -15 6 -18 1 -18 -34 0 -82
-50 -149 -128 -171 -20 -5 -123 -10 -228 -10 -186 0 -191 -1 -212 -23 -13 -14
-22 -36 -22 -54 0 -85 22 -93 265 -93 221 0 245 -5 291 -66 l29 -37 5 -209 c4
-171 8 -211 20 -219 81 -54 221 -97 405 -126 136 -21 524 -24 660 -5 199 28
394 90 437 138 14 16 17 49 20 220 l3 201 29 37 c46 61 70 66 291 66 244 0
265 8 265 94 0 21 -8 40 -23 54 -22 21 -32 22 -213 22 -104 0 -206 5 -226 10
-78 22 -128 89 -128 171 0 35 -3 40 -17 34 -157 -63 -389 -113 -531 -116 -90
-2 -114 8 -132 51 -27 65 28 120 121 120 115 0 359 51 459 96 101 45 98 39
102 270 3 200 3 201 30 236 48 62 72 68 293 68 244 0 265 8 265 94 0 21 -8 40
-23 54 -22 21 -32 22 -213 22 -104 0 -206 5 -226 10 -78 22 -128 89 -128 171
0 35 -3 40 -17 34 -203 -82 -541 -143 -618 -111 -74 31 -66 134 12 155 21 6
56 11 78 11 61 0 272 37 350 61 83 25 153 60 177 86 14 16 17 47 20 219 3 200
3 201 30 236 48 62 72 68 293 68 217 0 249 7 262 58 11 41 5 65 -23 90 -24 21
-32 22 -218 22 -117 0 -206 4 -227 11 -71 24 -119 92 -119 169 0 22 -2 40 -4
40 -2 0 -21 -7 -42 -16 -116 -49 -323 -95 -494 -108 -63 -5 -80 -3 -107 13
-39 24 -50 67 -29 109 19 37 28 40 150 53 242 23 433 77 504 142 21 20 22 26
22 211 0 180 2 193 23 231 13 22 40 49 62 62 38 21 51 23 237 23 108 0 208 4
223 10 30 11 54 60 47 96 -2 13 -16 33 -30 44 -23 18 -41 20 -216 20 -209 0
-245 6 -289 47 -41 39 -57 75 -57 127 l0 45 -82 -31 c-177 -64 -414 -98 -688
-98 -311 0 -555 40 -752 125 -16 6 -18 1 -18 -39z"/>
<path d="M221 2988 c65 -103 89 -155 89 -193 0 -44 -40 -106 -83 -131 l-37
-21 157 -216 c86 -119 158 -215 159 -214 2 2 -6 36 -16 77 -27 102 -26 159 2
200 40 58 77 70 216 70 99 0 123 3 120 14 -2 7 -43 122 -93 254 l-90 242 -238
0 -237 0 51 -82z"/>
<path d="M4385 2828 c-49 -132 -91 -247 -93 -254 -3 -11 21 -14 120 -14 139 0
176 -12 216 -70 28 -41 29 -98 2 -200 -10 -41 -18 -75 -16 -77 1 -1 73 95 159
214 l157 216 -37 21 c-50 28 -86 96 -79 149 2 23 30 82 70 148 l65 109 -237 0
-237 0 -90 -242z"/>
<path d="M1 2865 l-1 -170 19 35 c16 32 63 72 94 83 7 2 -10 39 -44 98 -31 52
-59 101 -62 109 -3 8 -6 -61 -6 -155z"/>
<path d="M5110 3019 c0 -6 -26 -54 -57 -107 -36 -59 -53 -97 -46 -99 31 -11
78 -51 94 -83 l19 -35 0 168 c0 92 -2 167 -5 167 -3 0 -5 -5 -5 -11z"/>
</g>
</svg>
