<?xml version="1.0" standalone="no"?>
<!DOCTYPE svg PUBLIC "-//W3C//DTD SVG 20010904//EN" "http://www.w3.org/TR/2001/REC-SVG-20010904/DTD/svg10.dtd">
<svg version="1.0" xmlns="http://www.w3.org/2000/svg" width="512.000000pt" height="512.000000pt" viewBox="0 0 512.000000 512.000000" preserveAspectRatio="xMidYMid meet">

  <g transform="translate(0.000000,512.000000) scale(0.100000,-0.100000)" fill="#fff" stroke="none">
    <path d="M0 3704 l0 -1416 48 63 c68 92 249 276 364 372 199 165 487 349 828
532 186 100 318 187 422 281 46 42 115 98 153 126 96 70 270 152 390 184 91
25 120 28 316 32 172 3 233 1 305 -13 241 -45 430 -144 640 -337 151 -139 247
-219 484 -398 427 -324 759 -605 1057 -895 l113 -110 0 1498 0 1497 -2560 0
-2560 0 0 -1416z m2695 1366 c326 -32 607 -149 857 -357 95 -79 118 -107 118
-145 0 -37 -48 -88 -83 -88 -17 0 -55 25 -114 76 -242 208 -492 315 -800 344
-369 34 -740 -92 -1037 -354 -81 -71 -122 -80 -162 -32 -42 48 -33 82 41 152
307 289 760 444 1180 404z m82 -356 c110 -19 215 -55 320 -108 153 -77 315
-206 329 -261 14 -55 -45 -115 -99 -101 -15 3 -54 31 -87 61 -118 104 -265
184 -415 225 -99 27 -328 38 -431 21 -192 -33 -369 -118 -514 -246 -33 -30
-72 -58 -87 -61 -54 -14 -113 46 -99 100 15 59 176 185 341 266 236 117 478
151 742 104z m-19 -344 c145 -35 302 -121 392 -214 45 -47 47 -97 6 -132 -42
-37 -77 -31 -139 24 -73 63 -150 108 -239 139 -96 35 -268 43 -373 19 -97 -23
-218 -85 -293 -151 -72 -63 -104 -69 -148 -31 -41 35 -39 85 7 132 87 91 245
179 386 213 110 27 290 28 401 1z" />
    <path d="M2310 3696 c-98 -21 -186 -53 -280 -102 -81 -43 -117 -70 -277 -207
-96 -82 -265 -193 -423 -277 -544 -290 -868 -528 -1102 -810 -39 -47 -80 -93
-91 -102 -29 -26 -83 -23 -112 7 l-25 24 1 -412 c1 -272 4 -399 10 -373 15 65
69 153 125 206 128 121 308 150 470 76 l54 -25 419 415 420 415 -32 66 c-101
217 9 489 233 574 69 26 189 34 254 17 l49 -13 81 80 c134 134 288 199 471
199 125 0 185 -14 305 -71 79 -38 109 -59 176 -127 l81 -81 44 12 c68 18 160
15 231 -7 120 -37 205 -111 262 -230 29 -61 31 -72 31 -175 0 -100 -3 -116
-29 -172 l-29 -63 91 -97 c50 -54 236 -243 414 -421 l324 -323 54 25 c164 76
345 48 474 -74 56 -53 110 -141 125 -206 6 -26 9 71 10 296 0 248 -2 330 -11
315 -17 -32 -39 -45 -75 -45 -30 0 -52 17 -176 133 -377 352 -652 582 -1055
886 -187 140 -326 255 -462 380 -114 105 -190 158 -301 210 -152 71 -216 84
-454 87 -148 2 -229 -1 -275 -10z" />
    <path d="M2475 3279 c-86 -12 -208 -75 -273 -142 l-54 -54 30 -34 c37 -43 78
-124 87 -172 6 -33 11 -38 49 -47 69 -17 145 -58 197 -107 l49 -46 49 46 c55
52 103 78 183 101 52 16 56 19 63 53 9 49 48 124 87 168 l31 36 -53 54 c-70
71 -170 123 -268 141 -86 15 -93 15 -177 3z" />
    <path d="M1766 3015 c-58 -22 -102 -60 -133 -113 -24 -41 -28 -57 -28 -127 0
-71 4 -87 33 -140 37 -69 40 -112 13 -170 -22 -47 -868 -894 -918 -919 -48
-24 -103 -20 -174 14 -83 39 -134 46 -201 26 -138 -40 -219 -189 -174 -321 36
-107 111 -163 233 -175 97 -10 112 -24 123 -116 10 -88 20 -113 67 -165 136
-151 389 -83 434 116 17 77 0 148 -52 217 -74 99 -103 58 424 586 309 311 475
470 502 483 56 26 90 24 165 -12 114 -54 209 -49 292 14 95 72 126 202 74 312
-41 89 -110 133 -224 144 -93 9 -106 23 -115 115 -10 101 -57 175 -142 218
-51 27 -147 33 -199 13z" />
    <path d="M3200 3021 c-112 -34 -190 -142 -190 -262 0 -62 -25 -82 -112 -90
-42 -4 -89 -14 -105 -23 -92 -47 -143 -130 -143 -231 0 -139 95 -241 236 -253
54 -4 70 -1 141 32 91 41 121 44 178 17 50 -24 963 -936 965 -966 4 -40 0 -53
-31 -91 -17 -22 -38 -55 -46 -74 -21 -49 -21 -136 0 -192 22 -58 98 -129 155
-146 165 -50 332 67 332 232 0 48 24 94 56 106 14 6 47 10 74 10 97 0 204 85
231 183 15 54 6 134 -20 185 -45 88 -163 151 -255 138 -23 -4 -71 -20 -105
-36 -71 -34 -126 -38 -174 -14 -50 25 -896 872 -918 919 -26 57 -24 87 16 175
27 61 35 90 35 137 0 108 -68 203 -169 238 -47 16 -109 18 -151 6z" />
    <path d="M2506 2107 c-119 -121 -311 -151 -472 -76 l-43 21 -28 -20 c-15 -12
-205 -198 -421 -414 l-393 -394 26 -57 c169 -367 -209 -742 -571 -567 -107 52
-205 175 -229 286 -5 28 -12 33 -52 43 -144 37 -251 137 -300 280 l-22 66 -1
-637 0 -638 2560 0 2560 0 -1 638 c-1 534 -3 630 -13 591 -41 -145 -161 -262
-309 -300 -40 -10 -47 -15 -52 -43 -24 -112 -131 -242 -242 -294 -53 -24 -69
-27 -173 -27 -111 0 -118 1 -183 33 -213 105 -303 361 -201 570 l27 54 -418
418 -418 418 -66 -32 c-61 -29 -74 -31 -171 -31 -97 0 -110 2 -172 32 -36 17
-90 54 -119 82 -29 28 -53 50 -53 49 -1 0 -23 -23 -50 -51z m193 -216 c240
-96 491 -382 854 -973 235 -382 386 -537 654 -669 68 -33 127 -69 133 -79 20
-37 12 -77 -22 -105 -41 -35 -61 -31 -213 45 -267 133 -450 317 -672 678 -254
413 -389 599 -547 757 -209 208 -316 244 -483 159 -170 -86 -345 -298 -598
-724 -117 -197 -190 -301 -306 -435 -123 -143 -292 -291 -459 -402 -116 -78
-174 -105 -204 -97 -49 12 -78 71 -60 119 4 9 59 50 123 92 156 101 276 200
404 332 139 144 221 255 362 491 316 527 531 756 778 825 70 20 186 13 256
-14z" />
  </g>
</svg>