<?xml version="1.0" standalone="no"?>
<!DOCTYPE svg PUBLIC "-//W3C//DTD SVG 20010904//EN" "http://www.w3.org/TR/2001/REC-SVG-20010904/DTD/svg10.dtd">
<svg version="1.0" xmlns="http://www.w3.org/2000/svg" width="512.000000pt" height="512.000000pt" viewBox="0 0 512.000000 512.000000" preserveAspectRatio="xMidYMid meet">

	<g transform="translate(0.000000,512.000000) scale(0.100000,-0.100000)" fill="currentcolor" stroke="none">
		<path d="M0 2560 l0 -2560 2560 0 2560 0 0 2560 0 2560 -667 -1 c-576 0 -660
-2 -608 -14 178 -39 332 -145 431 -296 71 -109 114 -248 114 -369 l0 -48 73
-1 c165 -2 318 -71 448 -201 148 -148 206 -300 197 -513 -4 -92 -10 -126 -35
-193 -77 -205 -230 -352 -438 -421 -69 -23 -97 -26 -205 -26 -119 -1 -131 1
-238 37 -192 65 -235 49 -458 -175 l-149 -149 59 -59 59 -60 81 76 c97 91 139
112 224 113 75 0 116 -15 172 -67 55 -49 82 -109 82 -183 0 -82 -29 -139 -117
-229 l-75 -77 34 -33 c34 -33 34 -33 86 -21 161 39 312 -83 312 -250 0 -69
-22 -123 -70 -174 -52 -54 -104 -76 -182 -76 -108 0 -190 54 -233 150 -24 52
-28 152 -8 189 12 22 10 27 -23 60 l-36 36 -212 -213 -213 -212 36 -35 c32
-32 38 -35 63 -25 48 18 136 12 192 -14 152 -71 193 -265 82 -391 -53 -61
-113 -87 -193 -87 -164 1 -281 149 -246 308 l13 57 -34 33 -33 34 -210 -210
-210 -210 36 -35 c33 -33 37 -35 68 -24 19 7 60 9 97 6 218 -17 312 -283 152
-433 -55 -53 -95 -68 -173 -68 -79 0 -129 20 -183 75 -61 62 -86 160 -63 244
10 38 9 41 -24 74 l-34 35 -85 -81 c-68 -66 -94 -85 -137 -97 -65 -20 -92 -20
-155 -1 -101 30 -175 128 -177 233 -2 91 17 127 109 222 l84 86 -63 62 -63 62
-156 -157 c-85 -87 -163 -174 -173 -193 -10 -19 -20 -62 -23 -96 -4 -52 0 -76
29 -155 33 -91 34 -99 34 -244 -1 -140 -3 -155 -29 -223 -60 -159 -165 -287
-297 -365 -107 -63 -206 -90 -334 -91 -133 -1 -191 12 -314 71 -79 38 -108 59
-177 127 -68 69 -89 98 -127 177 -51 107 -65 159 -74 269 l-6 77 -91 6 c-234
15 -451 159 -555 370 -58 117 -74 197 -69 337 7 188 63 313 198 451 184 185
459 247 710 159 58 -20 115 -34 145 -34 95 -1 126 20 303 197 l162 162 -60 60
-60 59 -78 -76 c-88 -87 -123 -108 -197 -115 -148 -15 -275 101 -275 251 0 85
31 145 119 231 l71 69 -36 37 -35 36 -53 -15 c-128 -35 -271 49 -307 182 -42
155 67 310 226 324 176 15 319 -149 273 -314 l-15 -53 36 -35 37 -36 209 210
210 210 -36 35 c-32 32 -38 35 -63 25 -37 -14 -119 -13 -170 2 -55 16 -138 99
-154 154 -52 178 63 337 244 337 113 0 207 -69 238 -174 19 -63 20 -86 5 -145
-12 -45 -11 -46 22 -80 l34 -34 213 213 212 213 -33 32 -34 33 -61 -12 c-167
-35 -312 81 -312 248 0 105 43 179 132 229 45 25 64 29 123 28 85 0 135 -23
192 -88 59 -67 78 -158 53 -246 -9 -32 -7 -37 25 -69 l34 -35 84 81 c114 109
181 132 293 98 105 -31 174 -127 174 -242 0 -88 -18 -123 -110 -217 l-80 -82
60 -59 60 -60 160 160 c88 88 168 176 177 195 31 64 29 138 -6 239 -72 209
-59 395 40 581 85 159 269 295 453 335 52 11 -221 14 -1751 14 l-1813 1 0
-2560z" />
		<path d="M3586 4935 c-233 -59 -388 -260 -388 -500 0 -77 5 -106 36 -197 29
-85 36 -122 36 -182 0 -94 -31 -185 -88 -258 -23 -29 -450 -461 -949 -959
-831 -830 -914 -909 -973 -938 -127 -61 -219 -63 -370 -10 -215 77 -412 37
-560 -111 -102 -102 -150 -217 -150 -360 0 -143 48 -258 150 -360 192 -192
489 -201 704 -21 47 40 81 50 121 35 25 -10 47 -62 40 -95 -9 -42 -95 -113
-197 -162 -84 -41 -86 -43 -93 -83 -11 -64 12 -180 49 -259 90 -191 293 -309
503 -291 233 19 427 199 463 430 14 91 6 158 -37 286 -32 96 -35 113 -31 196
3 78 9 101 37 160 31 65 91 127 950 987 504 505 938 934 964 954 64 47 137 74
222 80 73 5 123 -4 240 -47 82 -30 192 -36 279 -16 390 92 529 573 246 856
-102 102 -217 150 -361 150 l-77 0 -22 -55 c-26 -65 -107 -184 -146 -214 -53
-42 -124 -19 -140 46 -8 30 -3 39 68 132 117 154 137 351 54 526 -59 124 -160
216 -291 264 -78 29 -208 36 -289 16z" />
		<path d="M1899 4311 c-17 -18 -29 -40 -29 -56 0 -32 50 -85 80 -85 78 0 119
91 65 145 -34 35 -78 33 -116 -4z" />
		<path d="M2525 4090 c-11 -5 -352 -341 -757 -747 -665 -665 -738 -741 -738
-770 0 -17 3 -39 6 -48 8 -20 56 -45 86 -45 17 0 216 194 769 747 442 441 749
755 752 769 6 34 -19 83 -48 94 -31 12 -43 12 -70 0z" />
		<path d="M1361 3774 c-24 -20 -31 -34 -31 -60 0 -89 116 -116 158 -37 19 35
14 63 -17 94 -36 36 -70 37 -110 3z" />
		<path d="M2285 3380 l-210 -210 60 -60 60 -60 212 212 213 213 -57 57 c-32 32
-60 58 -63 58 -3 0 -100 -94 -215 -210z" />
		<path d="M812 3227 c-60 -63 6 -164 89 -135 59 20 71 106 21 144 -28 22 -86
17 -110 -9z" />
		<path d="M1745 2840 l-210 -210 60 -60 60 -60 210 210 210 210 -60 60 -60 60
-210 -210z" />
		<path d="M3228 1903 c-677 -677 -748 -751 -748 -780 0 -45 9 -62 42 -79 23
-12 36 -13 61 -5 22 8 259 238 770 749 716 716 737 738 737 775 0 49 -36 87
-82 87 -30 0 -94 -61 -780 -747z" />
		<path d="M3252 2417 c-111 -111 -202 -207 -202 -212 0 -13 102 -115 115 -115
13 0 415 402 415 415 0 13 -102 115 -115 115 -6 0 -101 -91 -213 -203z" />
		<path d="M2707 1872 l-207 -207 63 -63 62 -62 210 210 210 210 -60 60 c-33 33
-62 60 -65 60 -3 0 -99 -93 -213 -208z" />
		<path d="M4212 2040 c-27 -11 -55 -71 -45 -97 3 -10 15 -28 26 -40 44 -49 137
-14 137 52 0 47 -8 64 -41 80 -32 17 -44 18 -77 5z" />
		<path d="M3649 1481 c-18 -14 -24 -29 -24 -61 0 -53 30 -80 85 -80 30 0 43 6
59 26 45 57 11 134 -59 134 -22 0 -47 -8 -61 -19z" />
		<path d="M3105 935 c-47 -46 -24 -125 42 -141 53 -14 113 46 99 99 -16 66 -95
89 -141 42z" />
	</g>
</svg>