<?xml version="1.0" standalone="no"?>
<!DOCTYPE svg PUBLIC "-//W3C//DTD SVG 20010904//EN"
 "http://www.w3.org/TR/2001/REC-SVG-20010904/DTD/svg10.dtd">
<svg version="1.0" xmlns="http://www.w3.org/2000/svg"
 width="512.000000pt" height="512.000000pt" viewBox="0 0 512.000000 512.000000"
 preserveAspectRatio="xMidYMid meet">

<g transform="translate(0.000000,512.000000) scale(0.100000,-0.100000)"
fill="#000000" stroke="none">
<path d="M1 4573 c1 -350 5 -524 10 -483 21 162 91 345 189 492 185 280 482
471 810 523 77 12 32 13 -462 14 l-548 1 1 -547z"/>
<path d="M1375 5105 c262 -41 489 -158 672 -348 172 -177 277 -378 324 -617
17 -84 17 -346 0 -430 -96 -488 -473 -865 -961 -961 -100 -20 -348 -17 -450 5
-492 106 -868 498 -945 986 -11 73 -13 -196 -14 -1827 l-1 -1913 2560 0 2560
0 0 2560 0 2560 -667 -1 c-576 0 -660 -2 -608 -14 129 -28 235 -85 333 -179
127 -121 194 -269 209 -456 l6 -80 67 0 c88 0 204 -30 293 -77 108 -56 230
-182 285 -293 59 -122 75 -199 69 -340 -5 -129 -30 -212 -95 -323 -45 -78
-150 -181 -233 -230 -131 -77 -312 -112 -451 -88 -36 6 -108 25 -160 42 -106
35 -157 35 -230 -2 -28 -14 -158 -136 -368 -345 -179 -177 -338 -328 -353
-333 -69 -26 -155 1 -198 61 -18 24 -25 51 -29 108 l-5 75 -117 5 c-126 5
-147 14 -192 74 -18 23 -22 47 -26 144 l-5 117 -80 5 c-92 7 -113 16 -151 66
-36 46 -44 125 -19 175 10 19 167 185 349 369 357 360 356 359 356 462 0 24
-14 83 -30 130 -94 271 -39 528 155 724 66 66 97 89 175 127 52 26 127 53 165
61 62 13 -56 14 -1100 14 -978 0 -1157 -2 -1090 -13z m968 -2296 c48 -12 75
-32 103 -74 15 -23 20 -53 24 -144 l5 -116 116 -5 c198 -9 229 -49 229 -297 0
-70 -5 -146 -11 -168 -9 -34 -69 -99 -379 -410 -202 -203 -375 -386 -385 -405
-10 -19 -20 -62 -23 -96 -4 -51 1 -77 27 -152 74 -214 57 -413 -51 -596 -82
-140 -222 -250 -383 -303 -65 -21 -100 -26 -190 -27 -133 -1 -191 12 -314 71
-79 38 -108 59 -177 127 -68 69 -89 98 -127 177 -51 107 -65 159 -74 269 l-6
77 -86 6 c-273 16 -521 209 -604 472 -18 59 -22 93 -22 210 0 126 3 147 27
213 39 108 84 177 170 264 186 185 457 246 708 158 103 -36 169 -42 235 -21
32 11 116 89 415 386 319 317 381 374 415 383 54 13 306 15 358 1z m931 -609
c150 -27 197 -59 216 -144 15 -69 -2 -102 -113 -209 -118 -113 -156 -137 -225
-137 -57 0 -104 27 -139 79 -21 31 -23 45 -23 175 0 136 1 143 26 180 26 38
90 75 130 76 11 0 69 -9 128 -20z"/>
<path d="M1715 2319 c-182 -182 -356 -351 -388 -374 -129 -98 -269 -116 -432
-56 -216 79 -416 40 -565 -109 -102 -102 -150 -217 -150 -360 0 -143 48 -258
150 -360 193 -193 485 -201 704 -20 36 30 57 40 83 40 45 0 83 -37 83 -82 0
-48 -86 -126 -200 -180 -86 -42 -88 -44 -95 -84 -11 -64 12 -180 49 -259 90
-191 293 -309 503 -291 233 19 427 199 463 430 14 91 6 158 -37 286 -32 96
-35 113 -31 196 3 78 8 101 37 160 30 62 69 105 397 434 l364 366 0 122 0 122
-86 0 c-112 0 -168 15 -209 55 -40 41 -55 97 -55 209 l0 86 -128 0 -127 0
-330 -331z"/>
<path d="M3160 1970 c0 -77 1 -82 18 -69 34 26 127 112 130 119 1 4 -25 10
-58 14 -34 4 -68 10 -76 13 -11 4 -14 -10 -14 -77z"/>
<path d="M1028 4935 c-319 -54 -602 -262 -746 -550 -100 -199 -132 -406 -97
-620 69 -427 387 -755 820 -846 81 -18 294 -17 380 0 415 83 727 395 816 816
17 77 17 303 0 380 -42 202 -129 370 -265 512 -236 249 -575 364 -908 308z
m380 -184 c300 -79 531 -311 613 -616 30 -112 30 -307 0 -420 -79 -300 -316
-537 -616 -616 -113 -30 -308 -30 -420 0 -302 81 -520 294 -611 598 -23 76
-27 107 -27 223 -1 157 14 229 74 358 122 263 363 447 644 492 85 13 257 3
343 -19z"/>
<path d="M1115 4604 c-11 -2 -45 -9 -75 -15 -123 -25 -264 -109 -359 -216 -58
-64 -131 -205 -152 -293 -22 -90 -17 -252 10 -340 50 -165 145 -294 279 -381
267 -174 598 -149 837 64 155 138 242 367 217 572 -35 285 -216 501 -487 584
-67 21 -226 36 -270 25z m143 -200 c22 -25 22 -27 22 -344 0 -213 -4 -327 -11
-343 -23 -51 -92 -61 -133 -21 l-26 27 0 326 c0 284 2 330 16 349 33 48 92 50
132 6z m-3 -849 c32 -31 32 -75 1 -111 -49 -58 -146 -20 -146 57 0 70 94 106
145 54z"/>
<path d="M3605 4938 c-27 -5 -81 -24 -120 -43 -183 -89 -287 -255 -287 -460 0
-78 5 -105 37 -200 34 -102 37 -117 33 -200 -3 -76 -9 -101 -37 -160 -31 -64
-63 -100 -353 -391 l-319 -321 68 -5 c84 -6 125 -26 160 -79 24 -36 27 -52 31
-148 l4 -109 109 -4 c96 -4 112 -7 148 -31 52 -34 72 -75 79 -155 l5 -63 316
314 c174 173 336 326 361 340 25 14 72 33 105 41 103 27 171 20 320 -34 322
-118 676 134 675 479 -1 148 -46 259 -149 362 -103 103 -214 148 -362 149
l-77 0 -22 -55 c-26 -65 -107 -184 -146 -214 -37 -29 -88 -28 -119 4 -39 38
-33 72 25 144 58 72 74 102 101 179 97 281 -85 595 -380 658 -74 15 -133 16
-206 2z"/>
</g>
</svg>
