<svg height="512" viewBox="0 0 54 60" width="512" xmlns="http://www.w3.org/2000/svg">
	<g id="Page-1" fill="none" fill-rule="evenodd">
		<g id="023---Hot-Stones" fill="currentcolor" fill-rule="nonzero">
			<path id="Shape" d="m52.949 16.683c-1.743-5.22-8.363-7.348-13.2-8.9-1.4532174-.38771284-2.8611217-.92875035-4.2-1.614-1.2599442-.93401156-1.9114214-2.47992855-1.7-4.034.0348239-.55580754-.1604461-1.10147875-.54-1.509-.3759925-.40135643-.902043-.62815228-1.452-.626h-9.714c-.549957-.00215228-1.0760075.22464357-1.452.626-.3799729.40703538-.5762635.95216664-.543 1.508.2114214 1.55407145-.4400558 3.09998844-1.7 4.034-1.3388783.68524965-2.7467826 1.22628716-4.2 1.614-4.833 1.553-11.453 3.681-13.2 8.9-2.1 6.274-.212 28.34 9 38.824-.08123415.8447702-.1146208 1.693459-.1 2.542.01862073 1.0888489.9110242 1.9593885 2 1.951h30.1c1.0889758.0083885 1.9813793-.8621511 2-1.951.0146208-.848541-.0187659-1.6972298-.1-2.542 9.213-10.483 11.096-32.549 9.001-38.823zm-9.411 36.162c-.1578801-.7302668-.3544912-1.4516191-.589-2.161-1.9222955-5.2662239-1.929376-11.0410781-.02-16.312 1.2924915-3.3018607 2.3128899-6.7038576 3.051-10.172.0839647-.3556996-.0328053-.7288731-.3045463-.9732685s-.6551639-.32108-1-.2-.5961521.4206363-.6554537.7812685c-.7196431 3.3480185-1.7057842 6.6331492-2.949 9.824-2.0846078 5.7105303-2.0916885 11.9727701-.02 17.688.7033925 2.1567266 1.0413817 4.4158469 1 6.684l-30.1.006c-.0418264-2.2701463.2961656-4.5313127 1-6.69 2.0716885-5.7152299 2.0646078-11.9774697-.02-17.688-1.2443031-3.1933881-2.2311181-6.4812108-2.951-9.832-.1238056-.5244774-.640941-.856525-1.16936792-.7508396-.52842691.1056854-.87807208.611089-.79063208 1.1428396.7378995 3.4694995 1.75830039 6.8728424 3.051 10.176 1.909376 5.2709219 1.9022955 11.0457761-.02 16.312-.2345088.7093809-.4311199 1.4307332-.589 2.161-8.056-10.714-9.1-30.763-7.513-35.528 1.422-4.259 7.484-6.208 11.91-7.631 1.6348873-.42869108 3.2127268-1.05109843 4.7-1.854 1.8508415-1.33328247 2.8386456-3.56119339 2.584-5.828l9.713.014c-.251286 2.26461979.7384275 4.48870364 2.589 5.818 1.4872732.80290157 3.0651127 1.42530892 4.7 1.854 4.426 1.423 10.488 3.372 11.91 7.631 1.587 4.765.539 24.814-7.517 35.528z" />
			<path id="Shape" d="m27 27c4.411 0 8-2.691 8-6s-3.589-6-8-6-8 2.691-8 6 3.589 6 8 6zm0-10c3.252 0 6 1.832 6 4s-2.748 4-6 4-6-1.832-6-4 2.748-4 6-4z" />
			<path id="Shape" d="m24.055 21.976c.2959647-.0000059.5778801-.1262312.775-.347.6267926-.4584614 1.395189-.6811901 2.17-.629.5522847 0 1-.4477153 1-1s-.4477153-1-1-1c-1.3808509-.0850756-2.7339269.4138463-3.729 1.375-.2320897.2992112-.2735914.7044508-.1069697 1.0444951.1666218.3400444.5122971.5555672.8909697.5555049z" />
			<path id="Shape" d="m26.948 33c-1.3808509-.0850756-2.7339269.4138463-3.729 1.375-.2320897.2992112-.2735914.7044508-.1069697 1.0444951.1666218.3400444.5122971.5555672.8909697.5555049.2957255.0002206.5774212-.1260693.774-.347.6274248-.4578657 1.3960302-.6801983 2.171-.628.5522847 0 1-.4477153 1-1s-.4477153-1-1-1z" />
			<path id="Shape" d="m27 47c-1.3808509-.0850756-2.7339269.4138463-3.729 1.375-.2320897.2992112-.2735914.7044508-.1069697 1.0444951.1666218.3400444.5122971.5555672.8909697.5555049.2959647-.0000059.5778801-.1262312.775-.347.6269259-.4581067 1.3953105-.6804779 2.17-.628.5522847 0 1-.4477153 1-1s-.4477153-1-1-1z" />
			<path id="Shape" d="m27 29c-4.411 0-8 2.691-8 6s3.589 6 8 6 8-2.691 8-6-3.589-6-8-6zm0 10c-3.252 0-6-1.832-6-4s2.748-4 6-4 6 1.832 6 4-2.748 4-6 4z" />
			<path id="Shape" d="m27 43c-4.411 0-8 2.691-8 6s3.589 6 8 6 8-2.691 8-6-3.589-6-8-6zm0 10c-3.252 0-6-1.832-6-4s2.748-4 6-4 6 1.832 6 4-2.748 4-6 4z" />
			<path id="Shape" d="m29 14c.2651948-.0000566.5195073-.1054506.707-.293l1-1c.9411311-.9434201.9411311-2.4705799 0-3.414-.0777979-.07766092-.1215158-.18307398-.1215158-.293s.0437179-.21533908.1215158-.293l1-1c.2599566-.25107447.3642126-.62287789.2726972-.97250732-.0915155-.34962944-.3645604-.6226744-.7141899-.71418984-.3496294-.09151544-.7214328.01274058-.9725073.27269716l-1 1c-.9411311.94342008-.9411311 2.47057992 0 3.414.0777979.0776609.1215158.183074.1215158.293s-.0437179.2153391-.1215158.293l-1 1c-.2859079.2859943-.3714219.7160366-.216678 1.0896546.1547439.3736179.5192821.6172591.923678.6173454z" />
			<path id="Shape" d="m37.293 23.293-1 1c-.9411311.9434201-.9411311 2.4705799 0 3.414.0777979.0776609.1215158.183074.1215158.293s-.0437179.2153391-.1215158.293l-1 1c-.2599566.2510745-.3642126.6228779-.2726972.9725073.0915155.3496295.3645604.6226744.7141899.7141899.3496294.0915154.7214328-.0127406.9725073-.2726972l1-1c.9411311-.9434201.9411311-2.4705799 0-3.414-.0777979-.0776609-.1215158-.183074-.1215158-.293s.0437179-.2153391.1215158-.293l1-1c.3789722-.3923789.3735524-1.0160848-.0121814-1.4018186s-1.0094397-.3911536-1.4018186-.0121814z" />
			<path id="Shape" d="m18.707 29.293-1-1c-.0777979-.0776609-.1215158-.183074-.1215158-.293s.0437179-.2153391.1215158-.293c.9411311-.9434201.9411311-2.4705799 0-3.414l-1-1c-.3923789-.3789722-1.0160848-.3735524-1.4018186.0121814s-.3911536 1.0094397-.0121814 1.4018186l1 1c.0777979.0776609.1215158.183074.1215158.293s-.0437179.2153391-.1215158.293c-.9411311.9434201-.9411311 2.4705799 0 3.414l1 1c.3923789.3789722 1.0160848.3735524 1.4018186-.0121814s.3911536-1.0094397.0121814-1.4018186z" />
			<path id="Shape" d="m23 14c.2651948-.0000566.5195073-.1054506.707-.293l1-1c.9411311-.9434201.9411311-2.4705799 0-3.414-.0777979-.07766092-.1215158-.18307398-.1215158-.293s.0437179-.21533908.1215158-.293l1-1c.2599566-.25107447.3642126-.62287789.2726972-.97250732-.0915155-.34962944-.3645604-.6226744-.7141899-.71418984-.3496294-.09151544-.7214328.01274058-.9725073.27269716l-1 1c-.9411311.94342008-.9411311 2.47057992 0 3.414.0777979.0776609.1215158.183074.1215158.293s-.0437179.2153391-.1215158.293l-1 1c-.2859079.2859943-.3714219.7160366-.216678 1.0896546.1547439.3736179.5192821.6172591.923678.6173454z" />
		</g>
	</g>
</svg>