<svg height="512" viewBox="0 0 60 59" width="512" xmlns="http://www.w3.org/2000/svg">
	<g id="Page-1" fill="none" fill-rule="evenodd">
		<g id="034---Knee-Joint" fill="currentcolor" fill-rule="nonzero" transform="translate(-1)">
			<path id="Shape" d="m57.109 38.905c-1.3159546-.2911928-2.6937356-.0387859-3.821.7l-9.838-9.843c.7472341-1.1235468 1.0093602-2.5011282.7269815-3.8205896-.2823786-1.3194615-1.0853564-2.4690995-2.2269815-3.1884104-1.3321396-.8435842-2.9861087-1.0032266-4.455-.43-1.5017814-2.0906161-3.9183937-3.3301518-6.4925-3.3301518s-4.9907186 1.2395357-6.4925 3.3301518c-1.4664877-.5687812-3.1158539-.4081118-4.445.433-1.1451168.7188262-1.9498437 1.8712363-2.2302768 3.1938703-.2804331 1.3226341-.0126053 2.7024539.7422768 3.8241297l-9.861 9.813c-1.13587909-.7348531-2.52078406-.9787881-3.83938526-.6762633s-2.4586668 1.1257602-3.16061474 2.2822633c-.87654209 1.4423427-.964066 3.2301671-.23259908 4.7512308.73146693 1.5210636 2.1826534 2.5689349 3.85659908 2.7847692.23993876 1.6733943 1.31208844 3.1109452 2.84759237 3.8180851 1.53550393.70714 3.32483743.5873775 4.75240763-.3180851 1.144421-.7205132 1.948802-1.8732346 2.2301895-3.1959817.2813874-1.3227471.0158598-2.7030697-.7361895-3.8270183l9.847-9.806c2.2136587 1.4424927 5.1697501.8943025 6.719-1.246 1.5513342 2.1465433 4.5190367 2.6885713 6.729 1.229l9.848 9.823c-.6522773.9696195-.9425635 2.1378443-.82 3.3.1612112 1.5291113 1.0133574 2.9003556 2.313 3.722 1.4276594.9004354 3.2139454 1.0174432 4.746865.3109356 1.5329195-.7065076 2.6043209-2.1405953 2.847135-3.8109356 1.6745787-.2147521 3.1267338-1.2623298 3.8587409-2.7836772s.64442-3.3097831-.2327409-4.7523228c-.7073279-1.161231-1.854965-1.9863319-3.181-2.287zm-26.109-17.914c1.8931371.0009432 3.6751342.8939798 4.809 2.41-.7917934.760218-1.3046608 1.764818-1.456 2.852-1.3388717.1652746-2.5511092.8731663-3.353 1.958-.8004127-1.0840167-2.0107811-1.7918725-3.348-1.958-.1516587-1.0906019-.6671764-2.0980285-1.463-2.859 1.1375102-1.5118381 2.9190216-2.4016681 4.811-2.403zm-3.341 13.135c-.7868641.1753896-1.6111939.028458-2.289-.408-.7881139-.5254877-1.8376486-.421246-2.507.249l-10.49 10.465c-.1889616.1884718-.2947445.4446583-.2938054.7115426s.1085221.5223201.2988054.7094574c.9987158.9648703 1.2047059 2.4890527.4979411 3.6844152s-2.1415354 1.749436-3.46827946 1.3393651c-1.32674408-.4100708-2.19864928-1.677093-2.10766164-3.0627803.01598396-.2751148-.08227342-.5446314-.2715701-.7449073s-.45285151-.3135566-.7284299-.3130927c-.02533333 0-.05033333 0-.075 0-1.11667181.0931239-2.19148469-.4467801-2.78345884-1.3981972-.59197415-.9514172-.60145055-2.1541762-.02454116-3.1148028.41885208-.699238 1.10353844-1.1985618 1.89732976-1.383673.79379133-.1851111 1.62872181-.0401601 2.31367024.401673.78808431.524942 1.83704144.421176 2.507-.248l9.853-9.829c.671799-.6807134.7709204-1.7405181.237-2.534-.4495281-.6776961-.6053971-1.5085709-.4320557-2.303115.1733413-.794544.6611108-1.4849997 1.3520557-1.913885.9511032-.5908085 2.1527985-.5998856 3.1127182-.0235124.9599196.5763733 1.5167267 1.641324 1.4422818 2.7585124-.0169597.2879497.0912457.5691976.2968318.7715265s.4885261.3060293.7761682.2844735c1.1288205-.0932763 2.2132365.4601632 2.8 1.429.2733307.4508737.4207827.9667827.427 1.494v.1c-.0027788.5250445-.1475607 1.0395558-.419 1.489-.42585.7046287-1.1194516 1.2062449-1.922 1.39zm30.929 11.2c-.589075.9663473-1.6718393 1.5189438-2.8 1.429-.2874581-.021525-.5702224.0820445-.7757719.2841458-.2055494.2021012-.3138873.4830731-.2972281.7708542.0806907 1.377164-.7906692 2.6309843-2.1095572 3.0354916-1.318888.4045074-2.7433853-.1451658-3.4486998-1.3307556-.7053145-1.1855899-.5085949-2.6997347.476257-3.665736.1902833-.1871373.2978663-.4425731.2988054-.7094574s-.1048438-.5230708-.2938054-.7115426l-10.492-10.461c-.3705648-.3725398-.8745443-.5816913-1.4-.581-.3940291.0008567-.7793181.1162002-1.109.332-.6849484.4424437-1.5202138.5877464-2.3143373.4026017-.7941236-.1851447-1.4790073-.68486-1.8976627-1.3846017-.2714393-.4494442-.4162212-.9639555-.419-1.489 0-.034 0-.067 0-.1.0051244-.5271019.1519179-1.0431243.425-1.494.5859301-.9697326 1.6709431-1.5234767 2.8-1.429.2876421.0215558.5705821-.0821446.7761682-.2844735s.3137915-.4835768.2968318-.7715265c-.0740281-1.1176225.4836302-2.1826813 1.4443439-2.7585193.9607136-.575838 2.16289-.565599 3.1136561.0265193.6906593.4288839 1.1782256 1.1191506 1.3515544 1.9134483.1733287.7942977.0176476 1.6249315-.4315544 2.3025517-.5343343.7935642-.4356385 1.8537078.236 2.535l9.853 9.829c.6700604.6687481 1.7184855.7728797 2.507.249.6849484-.4424437 1.5202138-.5877464 2.3143373-.4026017.7941236.1851447 1.4790073.68486 1.8976627 1.3846017.5709354.9485686.5701656 2.135173-.002 3.083z" />
			<path id="Shape" d="m11.447 58.9c4.3558703-2.4530703 7.9591481-6.0490869 10.421-10.4 3.753-6.571 6.57-9.5 9.132-9.5 2.086 0 5.675 3.735 9.143 9.515 3.044 5.073 5.179 8.291 10.485 10.414.1184475.0467953.2446438.0708811.372.071.4799959.000924.8929424-.3393282.9838332-.810641.0908908-.4713129-.1659153-.9407241-.6118332-1.118359-4.721-1.888-6.6-4.728-9.515-9.586-2.349-3.916-6.884-10.485-10.857-10.485-3.411 0-6.661 3.141-10.868 10.5-2.284296 3.9938528-5.5909198 7.3073797-9.58 9.6-.4940187.2471474-.69414739.8479813-.447 1.342.2471475.4940187.8479813.6941474 1.342.447z" />
			<path id="Shape" d="m1.2 32.391c-.33137085.4418278-.2418278 1.0686292.2 1.4s1.06862915.2418278 1.4-.2c3.778-5.037 9.144-8 13.456-10.373 1.9569356-.9409709 3.7882096-2.1235217 5.451-3.52 2.4025074-2.541101 5.8011229-3.8968169 9.293-3.707 3.4921909-.1893039 6.8908555 1.167163 9.293 3.709 1.7171085 1.5755502 3.5223512 3.0522634 5.407 4.423 4.7843783 3.5512051 9.3255408 7.4188604 13.593 11.577.3923789.3789722 1.0160848.3735524 1.4018186-.0121814s.3911536-1.0094397.0121814-1.4018186c-4.3288172-4.2199318-8.9358252-8.1447418-13.79-11.748-1.8138159-1.3200845-3.5531449-2.7395906-5.21-4.252-2.7768233-2.9172894-6.6838932-4.4845693-10.707-4.295-4.0227965-.1900845-7.9298184 1.3764462-10.707 4.293-1.5386339 1.2498627-3.2164056 2.3179322-5 3.183-4.246 2.339-10.057 5.543-14.093 10.924z" />
			<path id="Shape" d="m23.929 10.929c-.3789722.3923789-.3735524 1.0160848.0121814 1.4018186s1.0094397.3911536 1.4018186.0121814c1.5003029-1.5003802 3.5351967-2.3432915 5.657-2.3432915s4.1566971.8429113 5.657 2.3432915c.3923789.3789722 1.0160848.3735524 1.4018186-.0121814s.3911536-1.0094397.0121814-1.4018186c-3.9052274-3.9051525-10.2367726-3.9051525-14.142 0z" />
			<path id="Shape" d="m40.192 9.808c.4050178.00072465.770477-.24292575.9255686-.61707343.1550917-.37414768.0691851-.80489818-.2175686-1.09092657-5.4706514-5.46029338-14.3293486-5.46029338-19.8 0-.3789722.39237889-.3735524 1.01608478.0121814 1.40181858.3857338.38573379 1.0094397.39115363 1.4018186.01218142 4.6891928-4.67875071 12.2808072-4.67875071 16.97 0 .1875737.18816132.4423149.29394371.708.294z" />
			<path id="Shape" d="m43.021 6.979c.4043959-.00008635.7689341-.2437275.923678-.61734544s.0692299-.80366031-.216678-1.08965456c-7.0342458-7.01796599-18.4217542-7.01796599-25.456 0-.3789722.39237889-.3735524 1.01608478.0121814 1.40181858.3857338.38573379 1.0094397.39115363 1.4018186.01218142 6.2530174-6.23775419 16.3749826-6.23775419 22.628 0 .1874927.18754937.4418052.29294336.707.293z" />
		</g>
	</g>
</svg>