<svg height="512" viewBox="0 0 60 60" width="512" xmlns="http://www.w3.org/2000/svg">
	<g id="Page-1" fill="none" fill-rule="evenodd">
		<g id="025---Electrodes" fill="currentcolor" fill-rule="nonzero">
			<path id="Shape" d="m55 20h-6v-3c0-1.6568542-1.3431458-3-3-3h-1v-1c0-1.6568542-1.3431458-3-3-3h-17c-.0033061-2.76005315-2.2399468-4.99669388-5-5h-.09c-.4898665-2.88330337-2.9853841-4.99457036-5.91-5h-8c-3.3137085 0-6 2.6862915-6 6s2.6862915 6 6 6h8c2.9246159-.0054296 5.4201335-2.11669663 5.91-5h.09c1.6568542 0 3 1.34314575 3 3v8c0 1.6568542-1.3431458 3-3 3h-.09c-.4898665-2.8833034-2.9853841-4.9945704-5.91-5h-8c-3.31370843.0000001-5.99999982 2.6862916-5.99999982 6s2.68629139 5.9999999 5.99999982 6h8c2.9246159-.0054296 5.4201335-2.1166966 5.91-5h.09c1.0854693-.0036768 2.1396111-.3641933 3-1.026v12.026c0 1.6568542-1.3431458 3-3 3h-.09c-.4898665-2.8833034-2.9853841-4.9945704-5.91-5h-8c-3.3137085 0-6 2.6862915-6 6s2.6862915 6 6 6h8c2.9246159-.0054296 5.4201335-2.1166966 5.91-5h.09c1.0854693-.0036768 2.1396111-.3641933 3-1.026v12.026c0 1.6568542-1.3431458 3-3 3h-.09c-.4898665-2.8833034-2.9853841-4.9945704-5.91-5h-8c-3.3137085 0-6 2.6862915-6 6s2.6862915 6 6 6h8c2.9246159-.0054296 5.4201335-2.1166966 5.91-5h.09c2.7600532-.0033061 4.9966939-2.2399468 5-5v-38h17c.5522847 0 1 .4477153 1 1v1h-1c-1.6568542 0-3 1.3431458-3 3v3h-6c-2.7600532.0033061-4.9966939 2.2399468-5 5v19c0 8.836556 7.163444 16 16 16s16-7.163444 16-16v-19c-.0033061-2.7600532-2.2399468-4.9966939-5-5zm-41-10h-8c-2.209139 0-4-1.790861-4-4s1.790861-4 4-4h8c1.8184116.00681482 3.4034067 1.23931486 3.858 3h-2.858c-.5522847 0-1 .44771525-1 1s.4477153 1 1 1h2.858c-.4545933 1.76068514-2.0395884 2.99318518-3.858 3zm0 16h-8c-2.209139 0-4-1.790861-4-4s1.790861-4 4-4h8c1.8184116.0068148 3.4034067 1.2393149 3.858 3h-2.858c-.5522847 0-1 .4477153-1 1s.4477153 1 1 1h2.858c-.4545933 1.7606851-2.0395884 2.9931852-3.858 3zm0 16h-8c-2.209139 0-4-1.790861-4-4s1.790861-4 4-4h8c1.8184116.0068148 3.4034067 1.2393149 3.858 3h-2.858c-.5522847 0-1 .4477153-1 1s.4477153 1 1 1h2.858c-.4545933 1.7606851-2.0395884 2.9931852-3.858 3zm0 16h-8c-2.209139 0-4-1.790861-4-4s1.790861-4 4-4h8c1.8184116.0068148 3.4034067 1.2393149 3.858 3h-2.858c-.5522847 0-1 .4477153-1 1s.4477153 1 1 1h2.858c-.4545933 1.7606851-2.0395884 2.9931852-3.858 3zm27-41c0-.5522847.4477153-1 1-1h4c.5522847 0 1 .4477153 1 1v3h-6zm17 27c-.0000002 7.7319864-6.2680136 13.9999997-14 13.9999997s-13.9999998-6.2680133-14-13.9999997v-19c0-1.6568542 1.3431458-3 3-3h22c1.6568542 0 3 1.3431458 3 3z" />
			<path id="Shape" d="m41 44h-6.788c-.6009747.0003432-1.1701692.2699793-1.5511193.7347887-.38095.4648094-.5335605 1.0758709-.4158807 1.6652113.8720736 4.2768944 3.9977017 7.742964 8.162 9.051.6039501.1899267 1.2623647.078331 1.77-.3.5144297-.3782257.8196298-.9775008.823-1.616v-7.535c0-1.1045695-.8954305-2-2-2zm-6.79 2h6.79l.008 7.544c-3.4713974-1.0880334-6.0759936-3.9784532-6.798-7.544z" />
			<path id="Shape" d="m53.788 44h-6.788c-1.1045695 0-2 .8954305-2 2v7.535c.0017892.6402627.3071594 1.241727.823 1.621.5072603.3783129 1.1653744.4899207 1.769.3 4.1664224-1.308284 7.2932064-4.7767009 8.164-9.056.1173312-.5894586-.0355474-1.2004809-.4166436-1.6652323-.3810961-.4647513-.950334-.7343591-1.5513564-.7347677zm.007 2c-.7234274 3.5618681-3.3265949 6.4485299-6.795 7.535v-7.535h6.8z" />
			<path id="Shape" d="m54 24h-20c-1.1045695 0-2 .8954305-2 2v14c0 1.1045695.8954305 2 2 2h20c1.1045695 0 2-.8954305 2-2v-14c0-1.1045695-.8954305-2-2-2zm-20 16v-14h20v14z" />
			<path id="Shape" d="m37 31c.2651948-.0000566.5195073-.1054506.707-.293l1-1c.3789722-.3923789.3735524-1.0160848-.0121814-1.4018186s-1.0094397-.3911536-1.4018186-.0121814l-1 1c-.2859079.2859943-.3714219.7160366-.216678 1.0896546.1547439.3736179.5192821.6172591.923678.6173454z" />
			<path id="Shape" d="m43.293 28.293-7 7c-.2599566.2510745-.3642126.6228779-.2726972.9725073.0915155.3496295.3645604.6226744.7141899.7141899.3496294.0915154.7214328-.0127406.9725073-.2726972l7-7c.3789722-.3923789.3735524-1.0160848-.0121814-1.4018186s-1.0094397-.3911536-1.4018186-.0121814z" />
		</g>
	</g>
</svg>