<?xml version="1.0"?>
<svg xmlns="http://www.w3.org/2000/svg" xmlns:xlink="http://www.w3.org/1999/xlink" xmlns:svgjs="http://svgjs.com/svgjs" version="1.1" width="512" height="512" x="0" y="0" viewBox="0 0 512 512" style="enable-background:new 0 0 512 512" xml:space="preserve" class=""><g><g xmlns="http://www.w3.org/2000/svg" id="Page-1"><g id="_x30_24---Dumbell"><path id="Shape" d="m25.6 307.2h8.533v59.733c.028 23.552 19.114 42.638 42.667 42.667 9.263-.031 18.258-3.108 25.6-8.755v8.755c0 23.564 19.103 42.667 42.667 42.667s42.667-19.103 42.667-42.667v-102.4h136.533v102.4c0 23.564 19.103 42.667 42.667 42.667s42.667-19.103 42.667-42.667v-8.755c7.342 5.647 16.337 8.724 25.6 8.755 23.552-.028 42.638-19.114 42.667-42.667v-59.733h8.533c14.138 0 25.6-11.462 25.6-25.6v-51.2c0-14.138-11.461-25.6-25.6-25.6h-8.533v-59.733c-.028-23.552-19.114-42.638-42.667-42.667-9.263.031-18.258 3.108-25.6 8.755v-8.755c0-23.564-19.103-42.667-42.667-42.667s-42.667 19.103-42.667 42.667v102.4h-136.534v-102.4c0-23.564-19.103-42.667-42.667-42.667s-42.666 19.103-42.666 42.667v8.755c-7.342-5.647-16.337-8.724-25.6-8.755-23.552.028-42.638 19.114-42.667 42.667v59.733h-8.533c-14.138 0-25.6 11.462-25.6 25.6v51.2c0 14.138 11.462 25.6 25.6 25.6zm460.8-85.333c4.713 0 8.533 3.821 8.533 8.533v51.2c0 4.713-3.82 8.533-8.533 8.533h-8.533v-68.267h8.533zm-51.2-102.4c14.138 0 25.6 11.462 25.6 25.6v221.867c0 14.138-11.462 25.6-25.6 25.6s-25.6-11.462-25.6-25.6v-221.867c0-14.139 11.462-25.6 25.6-25.6zm-93.867-17.067c0-14.138 11.462-25.6 25.6-25.6s25.6 11.462 25.6 25.6v307.2c0 14.138-11.462 25.6-25.6 25.6s-25.6-11.462-25.6-25.6zm-17.066 119.467v68.267h-136.534v-68.267zm-204.8-119.467c0-14.138 11.462-25.6 25.6-25.6s25.6 11.462 25.6 25.6v307.2c0 14.138-11.462 25.6-25.6 25.6-14.139 0-25.6-11.462-25.6-25.6zm-68.267 42.667c0-14.139 11.462-25.6 25.6-25.6s25.6 11.462 25.6 25.6v221.867c0 14.138-11.462 25.6-25.6 25.6s-25.6-11.462-25.6-25.6zm-34.133 85.333c0-4.713 3.821-8.533 8.533-8.533h8.533v68.267h-8.533c-4.713 0-8.533-3.82-8.533-8.533z" fill="#0c77f8" data-original="#000000" class=""/></g></g></g></svg>
