<svg fill="currentcolor" height="512" viewBox="0 0 60 60" width="512" xmlns="http://www.w3.org/2000/svg">
	<g id="Page-1" fill="currentcolor" fill-rule="evenodd">
		<g id="003---Bone-Healing" fill="currentcolor" fill-rule="nonzero" transform="translate(0 -1)">
			<path id="Shape" d="m8.586 52.342c-.13958474 2.207092.63873612 4.3738144 2.1508383 5.9875945 1.5121022 1.61378 3.623664 2.5312636 5.8351617 2.5354055 1.5707054.0028935 3.1064286-.4637435 4.41-1.34 3.2098803-2.1491544 4.4418245-6.2746571 2.936-9.832-.5193054-1.1090406-.3088138-2.4227301.531-3.314l3.43-3.43 1.414 1.415-1.414 1.414c-.562719.5626237-.8788593 1.3257625-.8788593 2.1215s.3161403 1.5588763.8788593 2.1215c1.1714996 1.1711458 3.0705004 1.1711458 4.242 0l1.414-1.415.838.838c-.6231252 1.3152208-.2098465 2.8880384.9793323 3.7270523 1.1891789.8390139 2.8095202.7009977 3.8396677-.3270523 1.033438-1.0302142 1.1733107-2.6555283.3310824-3.8471602-.8422284-1.1916319-2.4210378-1.6022062-3.7370824-.9718398l-.837-.838 4.949-4.95.838.838c-.6529773 1.3757077-.1696971 3.0223957 1.1231783 3.8270224 1.2928753.8046268 2.9837126.5110104 3.9296284-.6823857.9459159-1.193396.845744-2.9066114-.2328067-3.9816367-.9106048-.8665723-2.2568674-1.0918733-3.4-.569l-.846-.846 4.951-4.95.835.836c-.6344241 1.3162181-.2283145 2.8980691.9616875 3.7459012 1.1900019.8478321 2.8177425.7150236 3.85457-.3144971 1.0368274-1.0295207 1.181144-2.6562814.3417489-3.8522495s-2.4183345-1.6132545-3.7390064-.9881546l-.837-.838 1.414-1.414c.7680809-.755851 1.0717595-1.8655872.7955552-2.9072062s-1.0898526-1.8550755-2.1315366-2.1310343c-1.0416841-.2759587-2.1513487.0279815-2.9070186.7962405l-1.414 1.414-1.414-1.414 3.429-3.43c.8914585-.8402487 2.2056933-1.0507641 3.315-.531 3.557715 1.507464 7.6846972.2762931 9.835-2.934 1.6771471-2.5331179 1.7747612-5.797618.2519643-8.4264197-1.522797-2.6288016-4.403195-4.16821623-7.4349643-3.9735803.2128155-3.304684-1.6324266-6.39889401-4.6410844-7.7824421-3.0086577-1.38354809-6.5587445-.77041023-8.9290463 1.54214158-2.3703019 2.31255181-3.070801 5.84643849-1.7618693 8.88830052.5191868 1.1093878.3087256 2.4232841-.531 3.315l-3.43 3.429-1.414-1.414 1.414-1.414c1.1554475-1.174143 1.1479902-3.0603288-.0167052-4.2252988-1.1646955-1.16497-3.0508795-1.1728719-4.2252948-.0177012l-1.415 1.414-.835-.836c.6447783-1.3326649.2339669-2.93608216-.9721931-3.79451832-1.2061601-.85843617-2.8556838-.72137998-3.9036302.32434616-1.0479463 1.04572614-1.1885007 2.69495546-.3326246 3.90293346s2.4584185 1.6221891 3.7924479.9802387l.837.837-4.953 4.955-.838-.837c.5455362-1.1413839.3145472-2.5024976-.577-3.4-1.1870572-1.1329556-3.0549428-1.1329556-4.242 0-1.0433 1.0279556-1.1887376 2.6602009-.3436179 3.85642.8451198 1.1962192 2.4321606 1.6044815 3.7496179.96458l.836.835-4.95 4.95-.835-.835c.6458396-1.3328448.2357023-2.9371846-.9705601-3.7965536-1.2062624-.8593689-2.85656678-.722935-3.90532541.322861-1.04875863 1.0457961-1.18986048 2.6957079-.33390729 3.9043965.8559532 1.2086886 2.4591264 1.6233627 3.7937928.9812961l.837.837-1.414 1.415c-1.17114581 1.1714996-1.17114581 3.0705004 0 4.242 1.1729805 1.168509 3.0700195 1.168509 4.243 0l1.414-1.414 1.414 1.414-3.428 3.424c-.8911062.8408493-2.2055344 1.0517922-3.315.532-3.55787954-1.5085312-7.68574397-.2766774-9.835 2.935-1.67714711 2.5331179-1.77476122 5.797618-.25196428 8.4264197 1.52279695 2.6288016 4.40319493 4.1682162 7.43496428 3.9735803zm28.485-2.613c.4771189.0003756.8875173.3377628.9801744.8057984.0926572.4680355-.1582382.9363393-.5992258 1.1184727-.4409875.1821335-.9492218.02736-1.2138408-.3696531-.2646189-.3970132-.211908-.9256704.1258922-1.262618.1876563-.1871827.4419486-.2922087.707-.292zm6.364-6.365c.4043959.0000863.7689341.2437275.923678.6173454.1547439.373618.0692299.8036603-.216678 1.0896546-.3958895.3771429-1.0181105.3771429-1.414 0-.3903819-.3904999-.3903819-1.0235001 0-1.414.1867982-.1885858.441563-.2941673.707-.293zm7.071-6.071c.3373618.3374644.3892927.8662716.1240232 1.2629167-.2652694.396645-.7738254.5506082-1.214552.3677004-.4407266-.1829077-.6908213-.6517217-.5972852-1.1196386.093536-.4679168.5046402-.8045579.981814-.8039785.2650021-.0004513.519191.1050406.706.293zm-28.284-25.456c-.2860606-.2859742-.3716717-.7161158-.2169084-1.0898272.1547633-.3737115.5194187-.6173863.9239084-.6173863s.7691451.2436748.9239084.6173863c.1547633.3737114.0691522.803853-.2169084 1.0898272-.3904999.3903819-1.0235001.3903819-1.414 0zm-6.364 6.363c-.2860606-.2859742-.3716717-.7161158-.2169084-1.0898272.1547633-.3737115.5194187-.6173863.9239084-.6173863s.7691451.2436748.9239084.6173863c.1547633.3737114.0691522.803853-.2169084 1.0898272-.3904999.3903819-1.0235001.3903819-1.414 0zm-6.364 6.365c-.28606061-.2859742-.37167172-.7161158-.21690842-1.0898272.1547633-.3737115.51941869-.6173863.92390842-.6173863.4044897 0 .7691451.2436748.9239084.6173863.1547633.3737114.0691522.803853-.2169084 1.0898272-.1866032.1892043-.4412576.2957196-.707.2957196-.26574238 0-.52039681-.1065153-.707-.2957196zm19.8 16.97 4.95-4.95 1.413 1.415-4.95 4.95zm16.97-11.313c.2525868-.2527654.6208353-.3515768.96603-.259213.3451946.0923639.6148921.3618707.7075.707s-.0059432.7134476-.25853.966213l-16.972 16.97c-.395481.3781625-1.018519.3781625-1.414 0-.3903819-.3904999-.3903819-1.0235001 0-1.414l8.485-8.484 6.362-6.362zm-4.242 1.414-4.95 4.95-1.414-1.415 4.949-4.949zm-11.315-11.314-4.95 4.95-1.414-1.414 4.95-4.95zm-16.97 11.314c-.2525868.2527654-.6208353.3515768-.96603.259213-.3451946-.0923639-.6148921-.3618707-.7075-.707s.0059432-.7134476.25853-.966213l16.971-16.971c.3958895-.3771429 1.0181105-.3771429 1.414 0 .187777.1875683.2932867.4420908.2932867.7075s-.1055097.5199317-.2932867.7075zm4.242-1.414 4.95-4.95 1.414 1.414-4.95 4.95zm-14.917 10.842c1.59279759-2.4395692 4.7124952-3.3752673 7.385-2.215 1.8606085.8449231 4.0486551.4661693 5.517-.955l4.136-4.136 16.865-16.865c1.4211693-1.4683449 1.7999231-3.6563915.955-5.517-1.0361207-2.40451334-.3934283-5.20323273 1.5879065-6.91482349s4.8437391-1.94077514 7.0721704-.56624811c2.2284313 1.37452704 3.3082518 4.03532983 2.6679231 6.5740716-.2639354 1.0502812-.8051213 2.010394-1.567 2.78-.2722253.2490571-.3851896.6277794-.2938837.9852696.0913059.3574903.3720451.6356575.7303605.7236694.3583155.0880119.735982-.0284331.9825232-.302939.8494254-.8661432 1.4918052-1.913301 1.879-3.063 2.5174999-.4018143 5.013541.8335677 6.2208565 3.0789295 1.2073156 2.2453617.8614284 5.0088291-.8620511 6.8873602-1.7234794 1.8785311-4.4470017 2.4606105-6.7878054 1.4507103-1.8604594-.8460851-4.0491861-.4672136-5.517.955l-21 21c-1.4212573 1.467894-1.8000441 3.6557351-.955 5.516 1.0282686 2.3460666.4537568 5.086193-1.430269 6.8216501-1.8840259 1.7354571-4.6620191 2.0834667-6.9159208.8663834s-3.4865841-3.7308157-3.0688102-6.2580335c1.1611866-.3892669 2.2178451-1.0392026 3.089-1.9.3910176-.3901892.3916891-1.0234824.0015-1.4145-.3901892-.3910176-1.0234824-.3916891-1.4145-.0015-.7725546.772385-1.7403049 1.3205464-2.8 1.586-2.39789468.6026068-4.91991254-.3273929-6.3525175-2.342505s-1.48242287-4.7026746-.1254825-6.769495z" />
		</g>
	</g>
</svg>