<svg height="512" viewBox="0 0 60 60" width="512" xmlns="http://www.w3.org/2000/svg">
	<g id="Page-1" fill="none" fill-rule="evenodd">
		<g id="046---Broken-Bone" fill="currentcolor" fill-rule="nonzero">
			<path id="Shape" d="m51.413 8.517c.2128155-3.304684-1.6324266-6.39889401-4.6410844-7.7824421-3.0086577-1.38354809-6.5587445-.77041023-8.9290463 1.54214158-2.3703019 2.31255181-3.070801 5.84643849-1.7618693 8.88830052.5178982 1.110074.3088876 2.4235158-.528 3.318l-7.1 7.1c-.5735773.5713193-.7461626 1.4320706-.4371718 2.1803496.3089908.7482789 1.0386061 1.2364798 1.8481718 1.2366504h1.136v2c0 1.1045695.8954305 2 2 2h2v1c.0001727.8087918.487455 1.5378681 1.2346909 1.847356.7472359.3094878 1.6073206.1384598 2.1793091-.433356l7.03-7.03c.895179-.8401645 2.2119292-1.0501156 3.324-.53 3.5597809 1.5021865 7.6848057.2661894 9.832-2.946 1.6723908-2.5334575 1.7667811-5.7952116.2436952-8.4211413-1.5230859-2.62592983-4.4012113-4.16357208-7.4306952-3.9698587zm5.527 11.274c-1.5903501 2.4414326-4.7101854 3.3791157-7.383 2.219-1.8622925-.8432439-4.0504893-.4660642-5.523.952l-7.034 7.038v-1c0-1.1045695-.8954305-2-2-2h-2v-2c0-1.1045695-.8954305-2-2-2h-1.136l7.106-7.1c1.416954-1.4724174 1.7929679-3.6599547.949-5.521-1.0341952-2.40399379-.3909673-5.2009742 1.5894947-6.91168052s4.8412409-1.94045734 7.0693344-.56774286c2.2280935 1.37271449 3.3094528 4.03119218 2.6721709 6.56942338-.2640913 1.0505106-.8052427 2.0109075-1.567 2.781-.2800996.2468372-.3993725.6291493-.3093157.9914671.0900569.3623177.3744445.644297.737515.7312693.3630706.0869723.7443546-.0355477.9888007-.3177364.8494312-.8655691 1.4915305-1.912485 1.878-3.062 2.3455174-.3843846 4.6960998.6562991 5.9882282 2.6511944 1.2921284 1.9948954 1.2806554 4.5655234-.0292282 6.5488056z" />
			<path id="Shape" d="m14 28c7.7319865 0 14-6.2680135 14-14s-6.2680135-14-14-14-14 6.2680135-14 14c.00826732 7.7285595 6.27144053 13.9917327 14 14zm0-26c6.627417 0 12 5.372583 12 12s-5.372583 12-12 12-12-5.372583-12-12c.00716485-6.62444695 5.37555305-11.99283515 12-12z" />
			<path id="Shape" d="m14 24c5.5228475 0 10-4.4771525 10-10s-4.4771525-10-10-10-10 4.4771525-10 10c.00606237 5.5203344 4.47966557 9.9939376 10 10zm0-18c4.418278 0 8 3.581722 8 8s-3.581722 8-8 8-8-3.581722-8-8c.00495988-4.41622192 3.58377808-7.99504012 8-8z" />
			<path id="Shape" d="m31 31h-2v-2c0-1.1045695-.8954305-2-2-2h-3.136c-.5306972-.0014371-1.0398938.2095879-1.414.586l-7.894 7.894c-.8943877.8392023-2.2095299 1.0494825-3.321.531-3.55886639-1.51093-7.68923459-.2762292-9.835 2.94-1.83249618 2.7424839-1.77916238 6.3321673.134 9.019 1.60731491 2.2705353 4.27552417 3.5471289 7.052 3.374-.13897747 2.2067689.63941138 4.3729916 2.1511661 5.9866028 1.5117548 1.6136112 3.6226988 2.531394 5.8338339 2.5363972 2.689461-.0099595 5.194932-1.3671541 6.6724603-3.6144213 1.4775284-2.2472671 1.7304387-5.0854705.6735397-7.5585787-.5188987-1.1097648-.3093517-2.4236914.529-3.317l7.967-7.967c.3731097-.3747629.583938-.8811818.587-1.41v-3c0-1.1045695-.8954305-2-2-2zm0 5-7.97 7.97c-1.4176462 1.4712562-1.793783 3.6587159-.949 5.519 1.0247689 2.3467218.4472538 5.0851821-1.4378994 6.8182291s-4.6624222 2.0786854-6.914855.8605718c-2.2524328-1.2181135-3.4835521-3.7314846-3.0652456-6.2578009 1.1606181-.389855 2.2168252-1.0397234 3.088-1.9.2602871-.250712.3650501-.6223558.2740261-.9720992-.0910241-.3497435-.363671-.6231628-.7131556-.7151758-.3494845-.0920131-.7214232.0116982-.9728705.271275-.7732555.7714633-1.7407351 1.3194714-2.8 1.586h-.01c-2.53796581.6346821-5.19459749-.4482129-6.56564821-2.6762864-1.37105072-2.2280736-1.14042767-5.0876481.56996605-7.0672049 1.71039371-1.9795568 4.50623046-2.6227133 6.90968216-1.5895087 1.8618713.8452333 4.0510531.4682803 5.523-.951l7.9-7.9h3.134v2c0 1.1045695.8954305 2 2 2h2z" />
			<path id="Shape" d="m39.348 34.4-1.97-.361c-.6000017-.1138385-1.2195239.0456243-1.69.435-.4327844.3541061-.6850408.8828179-.688 1.442v2.166c.0016784.7610536.4596673 1.4468546 1.162 1.74.2641347.1162854.5494031.1768794.838.178.5098323.0009503 1.0015048-.1892249 1.378-.533l1.972-1.8c.5293374-.4748983.7409763-1.2103921.545-1.894-.2106669-.7158502-.8111975-1.2488357-1.547-1.373zm-2.348 3.552v-2.036l.017.086 1.87.288z" />
			<path id="Shape" d="m14 17c.5522847 0 1-.4477153 1-1v-7c0-.55228475-.4477153-1-1-1s-1 .44771525-1 1v7c0 .5522847.4477153 1 1 1z" />
			<circle id="Oval" cx="14" cy="19" r="1" />
		</g>
	</g>
</svg>