<svg height="512" viewBox="0 0 60 60" width="512" xmlns="http://www.w3.org/2000/svg">
	<g id="Page-1" fill="none" fill-rule="evenodd">
		<g id="001---Spine-Pain" fill="currentcolor" fill-rule="nonzero">
			<path id="Shape" d="m19 46h-4c-1.6534434.0082058-2.9917942 1.3465566-3 3 0 1.6568542 1.3431458 3 3 3h4v4c0 2.748 5.7 4 11 4s11-1.252 11-4v-4h4c1.6534434-.0082058 2.9917942-1.3465566 3-3 0-1.6568542-1.3431458-3-3-3h-4v-1c-.0018105-.3807479-.0768402-.7575937-.221-1.11.1432594-.2749218.2190143-.5799979.221-.89v-4h4c1.6534434-.0082058 2.9917942-1.3465566 3-3 0-1.6568542-1.3431458-3-3-3h-4v-1c-.0018105-.3807479-.0768402-.7575937-.221-1.11.1432594-.2749218.2190143-.5799979.221-.89v-4h4c1.6534434-.0082058 2.9917942-1.3465566 3-3 0-1.6568542-1.3431458-3-3-3h-4v-1c-.0018105-.3807479-.0768402-.7575937-.221-1.11.1432594-.2749218.2190143-.5799979.221-.89v-4h4c1.6534434-.0082058 2.9917942-1.3465566 3-3 0-1.65685425-1.3431458-3-3-3h-4v-3c0-2.748-5.7-4-11-4s-11 1.252-11 4v3h-4c-1.6534434.00820583-2.9917942 1.34655664-3 3 0 1.6568542 1.3431458 3 3 3h4v4c.002158.3104979.0775326.6161076.22.892-.1433519.3519148-.2180285.7280132-.22 1.108v1h-4c-1.6534434.0082058-2.9917942 1.3465566-3 3 0 1.6568542 1.3431458 3 3 3h4v4c.002158.3104979.0775326.6161076.22.892-.1433519.3519148-.2180285.7280132-.22 1.108v1h-4c-1.6534434.0082058-2.9917942 1.3465566-3 3 0 1.6568542 1.3431458 3 3 3h4v4c.002158.3104979.0775326.6161076.22.892-.1433519.3519148-.2180285.7280132-.22 1.108zm11-44c5.8 0 8.8 1.434 9 2-.2.566-3.2 2-9 2-5.841 0-8.839-1.456-9-1.982v-.006c.161-.557 3.159-2.012 9-2.012zm-15 35c-.5522847 0-1-.4477153-1-1-.0008733-.2694422.1099083-.5272084.306-.712.1823963-.1865985.4330776-.2906276.694-.288h4c1.1045695 0 2-.8954305 2-2v-.563c2.1976656.9343594 4.5526264 1.4433567 6.94 1.5h.061c.3572656.0105393.6930153-.1703208.8807754-.4744523.1877601-.3041314.1990055-.6853292.0295-1-.1695055-.3146707-.4940098-.5150084-.8512754-.5255477-3.823-.229-6.277-1.1-6.963-1.83-.0350667-.0330899-.0674985-.0688651-.097-.107v-4c0-1.1045695-.8954305-2-2-2h-4c-.5522847 0-1-.4477153-1-1-.0008733-.2694422.1099083-.5272084.306-.712.1823963-.1865985.4330776-.2906276.694-.288h4c1.1045695 0 2-.8954305 2-2v-.563c2.1976656.9343594 4.5526264 1.4433567 6.94 1.5h.061c.3572656.0105393.6930153-.1703208.8807754-.4744523.1877601-.3041314.1990055-.6853292.0295-1-.1695055-.3146707-.4940098-.5150084-.8512754-.5255477-3.823-.229-6.277-1.1-6.963-1.83-.0350667-.0330899-.0674985-.0688651-.097-.107v-4c0-1.1045695-.8954305-2-2-2h-4c-.5522847 0-1-.4477153-1-1-.0008733-.26944224.1099083-.52720844.306-.712.1823963-.18659849.4330776-.29062758.694-.288h4c1.1045695 0 2-.8954305 2-2v-.572c2.128 1.072 5.643 1.572 9 1.572s6.872-.5 9-1.572v.572c0 1.1045695.8954305 2 2 2h4c.5522847 0 1 .44771525 1 1 .0008733.2694422-.1099083.5272084-.306.712-.1823963.1865985-.4330776.2906276-.694.288h-4c-1.1045695 0-2 .8954305-2 2v3.986c-.031528.0573595-.0732032.1085217-.123.151-.662.709-3.116 1.576-6.939 1.8-.5522847.0162924-.9867924.4772153-.9705 1.0295s.4772153.9867924 1.0295.9705h.061c2.3873253-.0573226 4.742448-.5641727 6.942-1.494v.557c0 1.1045695.8954305 2 2 2h4c.5522847 0 1 .4477153 1 1 .0008733.2694422-.1099083.5272084-.306.712-.1823963.1865985-.4330776.2906276-.694.288h-4c-1.1045695 0-2 .8954305-2 2v3.986c-.031528.0573595-.0732032.1085217-.123.151-.662.709-3.116 1.576-6.939 1.8-.5522847.0162924-.9867924.4772153-.9705 1.0295s.4772153.9867924 1.0295.9705h.061c2.3870363-.0594746 4.7414724-.5683584 6.94-1.5v.563c0 1.1045695.8954305 2 2 2h4c.5522847 0 1 .4477153 1 1 .0008733.2694422-.1099083.5272084-.306.712-.1819139.1860952-.4317698.2900815-.692.288h-4c-1.1045695 0-2 .8954305-2 2v3.986c-.031528.0573595-.0732032.1085217-.123.151-.662.709-3.116 1.576-6.939 1.8-.5522847.0162924-.9867924.4772153-.9705 1.0295s.4772153.9867924 1.0295.9705h.061c2.3870363-.0594746 4.7414724-.5683584 6.94-1.5v.563c0 1.1045695.8954305 2 2 2h4c.5522847 0 1 .4477153 1 1 .0008733.2694422-.1099083.5272084-.306.712-.1819139.1860952-.4317698.2900815-.692.288h-4c-1.1045695 0-2 .8954305-2 2v3.985c-.15.556-3.146 2.015-9 2.015s-8.851-1.459-9-2v-4c0-1.1045695-.8954305-2-2-2h-4c-.5522847 0-1-.4477153-1-1-.0008733-.2694422.1099083-.5272084.306-.712.1823963-.1865985.4330776-.2906276.694-.288h4c1.1045695 0 2-.8954305 2-2v-.563c2.1976656.9343594 4.5526264 1.4433567 6.94 1.5h.061c.5522847.0162924 1.0132076-.4182153 1.0295-.9705s-.4182153-1.0132076-.9705-1.0295c-3.823-.229-6.277-1.1-6.963-1.83-.0350667-.0330899-.0674985-.0688651-.097-.107v-4c0-1.1045695-.8954305-2-2-2z" />
			<path id="Shape" d="m58 22h-5.542c-.8336617.00251-1.5790619.5198727-1.873 1.3l-2.349 6.264c-.2091823.553831-.1326569 1.1751113.2046686 1.661627.3373255.4865156.8923153.7760528 1.4843314.774373h2.559l-1.69 6.757c-.1165046.4645907.1127819.9465517.5467469 1.1492638.433965.2027122.9507288.0692435 1.2322531-.3182638l7.071-9.722c.3671904-.5005137.450571-1.1549075.2206226-1.7315066-.2299484-.576599-.7407714-.9940238-1.3516226-1.1044934l1.2-2c.3710616-.617612.3812417-1.3870729.0266493-2.0142854s-1.0191418-1.0152174-1.7396493-1.0157146zm-1.384 6.084c.2579897.4545703.6998903.7754222 1.212.88l-3.845 5.286.5-2.008c.1365281-.5389673.0163243-1.1107792-.3256569-1.5491564-.3419811-.4383772-.8673538-.6941139-1.4233431-.6928436h-2.526l2.25-6h5.542l-1.361 2.267c-.3343123.5572403-.3434776 1.2511241-.024 1.817z" />
			<path id="Shape" d="m1.487 27.03c-.6108512.1104696-1.12167424.5278944-1.35162259 1.1044934-.22994836.5765991-.14656776 1.2309929.22062259 1.7315066l7.071 9.722c.28152429.3875073.79828813.520976 1.23225309.3182638.43396497-.2027121.6632515-.6846731.54674691-1.1492638l-1.69-6.757h2.559c.5925279.0019306 1.1480526-.2878727 1.485483-.7749392.3374304-.4870664.4135395-1.1089998.203517-1.6630608l-2.349-6.262c-.29393805-.7801273-1.03933825-1.29749-1.873-1.3h-5.542c-.72019155.0007131-1.38438429.3885804-1.73890996 1.0154679-.35452568.6268875-.34462913 1.3959747.02590996 2.0135321zm6.055-3.03 2.25 6h-2.526c-.55634003-.0018897-1.08228954.253586-1.42473062.6920514-.34244109.4384654-.46288576 1.01064-.32626938 1.5499486l.5 2.008-3.842-5.286c.57647684-.1141221 1.06094716-.5024677 1.29778916-1.0402923.23684201-.5378246.19623054-1.1574006-.10878916-1.6597077l-1.362-2.264z" />
		</g>
	</g>
</svg>